<svg width="24" height="27" viewBox="0 0 24 27" fill="none" xmlns="http://www.w3.org/2000/svg">
<path d="M17 3.5999H21C21.2652 3.5999 21.5196 3.7158 21.7071 3.92209C21.8946 4.12838 22 4.40816 22 4.6999V22.2999C22 22.5916 21.8946 22.8714 21.7071 23.0777C21.5196 23.284 21.2652 23.3999 21 23.3999H3C2.73478 23.3999 2.48043 23.284 2.29289 23.0777C2.10536 22.8714 2 22.5916 2 22.2999V4.6999C2 4.40816 2.10536 4.12838 2.29289 3.92209C2.48043 3.7158 2.73478 3.5999 3 3.5999H7V1.3999H9V3.5999H15V1.3999H17V3.5999ZM20 12.3999H4V21.1999H20V12.3999ZM15 5.7999H9V7.9999H7V5.7999H4V10.1999H20V5.7999H17V7.9999H15V5.7999ZM6 14.5999H8V16.7999H6V14.5999ZM11 14.5999H13V16.7999H11V14.5999ZM16 14.5999H18V16.7999H16V14.5999Z" fill="white"/>
</svg>
