<svg width="73" height="73" viewBox="0 0 73 73" fill="none" xmlns="http://www.w3.org/2000/svg">
<mask id="mask0_255_187" style="mask-type:alpha" maskUnits="userSpaceOnUse" x="0" y="0" width="73" height="73">
<circle cx="36.5" cy="36.5" r="36.5" fill="#D9D9D9"/>
</mask>
<g mask="url(#mask0_255_187)">
<rect x="-2" y="-4" width="77" height="50" fill="#D1E3F3"/>
<path d="M54.228 15.9232C44.9532 6.72835 35.6783 5.30615 35.6783 5.30615L-1.30859 26.6543V31.9628L2.27145 29.8941L35.6758 51.5414V49.7009L49.5919 41.2514C64.7764 40.3185 72.7803 31.8462 72.7803 31.8462V26.5478C72.7803 26.5478 63.5055 25.1205 54.228 15.9232Z" fill="url(#paint0_linear_255_187)"/>
<g style="mix-blend-mode:multiply" opacity="0.7">
<path d="M54.228 15.9232C44.9532 6.72835 35.6783 5.30615 35.6783 5.30615L-1.30859 26.6543V31.9628L2.27145 29.8941L35.6758 51.5414V49.7009L49.5919 41.2514C64.7764 40.3185 72.7803 31.8462 72.7803 31.8462V26.5478C72.7803 26.5478 63.5055 25.1205 54.228 15.9232Z" fill="#FCC7B6"/>
</g>
<path d="M47.8508 50.5425C54.9777 46.4661 63.4112 46.7399 69.2825 40.2779C70.5253 38.9115 71.5839 37.5907 72.7807 36.3814V26.9534L35.6787 48.19V60.3585C35.6787 60.3585 40.8979 54.5227 47.8508 50.5425Z" fill="url(#paint1_linear_255_187)"/>
<g style="mix-blend-mode:multiply" opacity="0.5">
<path d="M47.8508 50.5425C54.9777 46.4661 63.4112 46.7399 69.2825 40.2779C70.5253 38.9115 71.5839 37.5907 72.7807 36.3814V26.9534L35.6787 48.19V60.3585C35.6787 60.3585 40.8979 54.5227 47.8508 50.5425Z" fill="#FCC7B6"/>
</g>
<path d="M69.2825 40.278C63.401 46.7274 54.9777 46.4663 47.8508 50.5427C40.8979 54.5228 35.6813 60.3561 35.6787 60.3586V83.57C38.3561 83.57 37.5148 80.4595 39.8341 79.1336C42.1535 77.8077 43.115 79.4606 45.4343 78.1348C47.7537 76.8089 46.7896 75.1535 49.1064 73.8251C51.4232 72.4967 52.3872 74.1547 54.7066 72.8263C57.026 71.4979 56.0619 69.845 58.3787 68.5166C60.6955 67.1882 61.6621 68.8436 63.9815 67.5152C66.3008 66.1868 65.3368 64.5339 67.6561 63.2055C69.8093 61.9735 70.7963 63.3069 72.7705 62.445V36.3816C71.5916 37.5908 70.5253 38.9116 69.2825 40.278Z" fill="url(#paint2_linear_255_187)"/>
<path d="M69.49 59.778C69.5539 57.9679 69.3519 56.0767 68.5873 54.4111C67.7332 52.7582 67.5465 50.8214 67.8202 49.0012C67.5798 50.8189 67.8023 52.7354 68.687 54.3604C69.0874 55.2021 69.3654 56.0957 69.513 57.0147C69.6707 57.9356 69.7384 58.8695 69.715 59.8033H69.4849L69.49 59.778Z" fill="#4B76BC"/>
<path d="M70.0803 49.0012C70.336 51.2093 70.2056 53.5644 69.1776 55.5697L68.9756 55.4607C70.0547 53.5112 70.2542 51.189 70.0803 49.0012Z" fill="#4B76BC"/>
<path d="M65.9248 49.5791C66.201 50.5627 66.6766 52.0787 67.8861 52.1446V52.3728C66.559 52.2308 66.155 50.6641 65.9248 49.5842V49.5791Z" fill="#4B76BC"/>
<path d="M71.5357 51.4602C71.2979 52.2613 70.7685 53.0649 69.9247 53.3387L69.8633 53.1207C70.6765 52.928 71.2339 52.203 71.5357 51.4602Z" fill="#4B76BC"/>
<path d="M66.2168 54.2058C66.5423 54.8457 66.9977 55.4119 67.5543 55.8691C68.111 56.3263 68.7569 56.6645 69.4516 56.8626L69.3851 57.0806C68.6859 56.8434 68.0436 56.4656 67.4984 55.9709C66.9533 55.4762 66.5169 54.8753 66.2168 54.2058V54.2058Z" fill="#4B76BC"/>
<path d="M42.5859 73.8782C42.6937 72.1034 42.2864 70.3351 41.4121 68.7826C40.6366 67.1671 40.0605 65.4647 39.6963 63.7124C40.0975 65.4489 40.707 67.1315 41.5119 68.7243C41.9822 69.4932 42.3273 70.3308 42.5347 71.2062C42.7449 72.0836 42.8395 72.9843 42.816 73.8858L42.5859 73.8706V73.8782Z" fill="#E05327"/>
<path d="M43.1715 64.3943C43.4272 66.392 43.284 68.5392 42.2662 70.3239L42.0693 70.2048C43.1331 68.486 43.3479 66.3691 43.1715 64.3943Z" fill="#E05327"/>
<path d="M41.1975 64.3943C41.5632 65.492 42.1923 67.335 41.2589 68.2907L41.1055 68.1234C41.9877 67.2868 41.4737 65.4413 41.1898 64.3994L41.1975 64.3943Z" fill="#E05327"/>
<path d="M44.6288 66.1233C44.4089 67.008 43.9614 68.012 43.0152 68.3162L42.959 68.0931C43.8642 67.8725 44.3501 66.9345 44.6288 66.1233Z" fill="#E05327"/>
<path d="M39.3154 69.0842C39.6634 69.6777 40.1293 70.1949 40.6849 70.6045C41.2406 71.0141 41.8743 71.3076 42.5477 71.4672L42.4863 71.6878C41.8078 71.4886 41.1771 71.1552 40.6321 70.7077C40.0872 70.2602 39.6392 69.708 39.3154 69.0842V69.0842Z" fill="#E05327"/>
<path d="M77.0002 54.8447L65.6336 62.4348C59.8618 66.2882 53.8345 69.7514 47.5927 72.8009L35.4385 78.695" stroke="#4B76BC" stroke-width="0.9" stroke-miterlimit="10"/>
<path d="M76.9999 53.5796L65.6332 61.1849C59.8615 65.0383 53.8342 68.5015 47.5924 71.551L35.4561 77.3817" stroke="#E05327" stroke-width="0.9" stroke-miterlimit="10"/>
<path d="M35.6792 60.2901V51.5414L-1.42285 26.9509V36.6198C3.57386 37.0863 8.2714 39.4084 17.1294 48.19C24.4839 55.4835 32.025 58.9313 35.6792 60.2901Z" fill="url(#paint3_linear_255_187)"/>
<g style="mix-blend-mode:multiply" opacity="0.5">
<path d="M35.6792 60.2901V51.5414L-1.42285 26.9509V36.6198C3.57386 37.0863 8.2714 39.4084 17.1294 48.19C24.4839 55.4835 32.025 58.9313 35.6792 60.2901Z" fill="#FCC7B6"/>
</g>
<path d="M17.1294 48.1925C8.2714 39.4109 3.57642 37.0888 -1.42285 36.6223V62.4449C0.558956 63.3043 1.54602 61.9734 3.69149 63.2054C6.01085 64.5313 5.04682 66.1867 7.36618 67.5151C9.68553 68.8435 10.647 67.1881 12.9638 68.5139C15.2806 69.8398 14.3191 71.4952 16.6385 72.8236C18.9578 74.152 19.9219 72.4966 22.2412 73.8225C24.5606 75.1483 23.5965 76.8037 25.9133 78.1321C28.2301 79.4605 29.1967 77.8051 31.5187 79.1335C33.7638 80.4188 33.2831 83.3545 35.6766 83.5446V60.2901C32.025 58.9312 24.4839 55.4835 17.1294 48.1925Z" fill="url(#paint4_linear_255_187)"/>
<path d="M1.64292 59.7728C1.61735 57.9196 1.85772 56.0259 2.66579 54.3426C3.55057 52.7151 3.77301 50.7935 3.53264 48.9834C3.81137 50.8011 3.6247 52.7379 2.76549 54.3908C2.38533 55.2275 2.12703 56.1135 1.99834 57.0222C1.86259 57.9282 1.81466 58.8451 1.85515 59.7601H1.625L1.64292 59.7728Z" fill="#4B76BC"/>
<path d="M1.27751 48.9834C1.10874 51.1687 1.30307 53.4908 2.38219 55.4403L2.1802 55.5518C1.15733 53.5364 1.02946 51.1889 1.27751 48.9834V48.9834Z" fill="#4B76BC"/>
<path d="M5.43304 49.5614C5.2029 50.6439 4.79885 52.2131 3.47168 52.35V52.1218C4.68122 52.0559 5.15687 50.5399 5.43304 49.5588V49.5614Z" fill="#4B76BC"/>
<path d="M-0.180664 51.4399C0.121082 52.1853 0.678524 52.9078 1.4917 53.1004L1.43034 53.321C0.591583 53.0472 0.0571529 52.2436 -0.180664 51.4399Z" fill="#4B76BC"/>
<path d="M5.14121 54.1804C4.84278 54.8506 4.40804 55.4525 3.86419 55.9485C3.32033 56.4445 2.67908 56.8238 1.98055 57.0628L1.91406 56.8423C2.60796 56.643 3.25281 56.3037 3.80815 55.8456C4.3635 55.3875 4.81734 54.8206 5.14121 54.1804V54.1804Z" fill="#4B76BC"/>
<path d="M-5.64258 54.8242L5.72407 62.4143C11.4952 66.2695 17.5225 69.7336 23.7649 72.7829L35.9907 78.71" stroke="#4B76BC" stroke-width="0.9" stroke-miterlimit="10"/>
<path d="M28.5519 73.8603C28.4693 72.0521 28.9131 70.2586 29.8304 68.6937C30.6368 67.0996 31.2473 65.4152 31.6486 63.6768C31.2839 65.4293 30.7069 67.1317 29.9302 68.747C29.4835 69.5153 29.1616 70.3486 28.9763 71.2162C28.7933 72.0808 28.7229 72.9652 28.7667 73.8476L28.5391 73.8628L28.5519 73.8603Z" fill="#E05327"/>
<path d="M28.1865 64.3513C28.0126 66.3287 28.2248 68.4455 29.2886 70.1618L29.0917 70.2809C28.0689 68.5064 27.9333 66.3515 28.1865 64.3513Z" fill="#E05327"/>
<path d="M30.1609 64.3513C29.877 65.3932 29.363 67.2388 30.2453 68.0754L30.0995 68.2503C29.1661 67.292 29.7926 65.4617 30.1609 64.3513V64.3513Z" fill="#E05327"/>
<path d="M26.7285 66.0801C27.0072 66.8913 27.4957 67.8318 28.3984 68.0524L28.3421 68.273C27.3959 67.9687 26.9484 66.9648 26.7285 66.0801Z" fill="#E05327"/>
<path d="M32.0505 69.0436C31.7262 69.6668 31.2781 70.2184 30.7332 70.6654C30.1883 71.1124 29.5578 71.4455 28.8796 71.6447L28.8311 71.419C29.5043 71.2597 30.1378 70.9666 30.6934 70.5574C31.249 70.1482 31.7151 69.6315 32.0633 69.0386L32.0505 69.0436Z" fill="#E05327"/>
<path d="M-5.64258 53.5391L5.72407 61.1292C11.4953 64.9835 17.5226 68.4467 23.7649 71.4952L36.157 77.4553" stroke="#E05327" stroke-width="0.9" stroke-miterlimit="10"/>
<path d="M25.3449 51.9395C25.3449 51.9395 20.3968 52.9535 17.2412 59.3293C19.092 58.8347 20.795 57.9046 22.2058 56.6181C23.6166 55.3316 24.6934 53.7266 25.3449 51.9395Z" fill="url(#paint5_linear_255_187)"/>
<path d="M35.0885 43.2264C40.362 43.2264 44.637 41.0687 44.637 38.4071C44.637 35.7455 40.362 33.5879 35.0885 33.5879C29.815 33.5879 25.54 35.7455 25.54 38.4071C25.54 41.0687 29.815 43.2264 35.0885 43.2264Z" fill="url(#paint6_radial_255_187)"/>
<path style="mix-blend-mode:overlay" d="M30.5461 38.4071C39.2274 38.4071 46.265 34.8545 46.265 30.4722C46.265 26.0899 39.2274 22.5374 30.5461 22.5374C21.8648 22.5374 14.8271 26.0899 14.8271 30.4722C14.8271 34.8545 21.8648 38.4071 30.5461 38.4071Z" fill="url(#paint7_radial_255_187)"/>
<path style="mix-blend-mode:overlay" d="M40.0927 31.9273C50.7484 31.9273 59.3865 27.5666 59.3865 22.1874C59.3865 16.8082 50.7484 12.4475 40.0927 12.4475C29.437 12.4475 20.7988 16.8082 20.7988 22.1874C20.7988 27.5666 29.437 31.9273 40.0927 31.9273Z" fill="url(#paint8_radial_255_187)"/>
<path style="mix-blend-mode:overlay" d="M55.0495 29.2681C60.3229 29.2681 64.5979 27.1105 64.5979 24.4489C64.5979 21.7873 60.3229 19.6296 55.0495 19.6296C49.776 19.6296 45.501 21.7873 45.501 24.4489C45.501 27.1105 49.776 29.2681 55.0495 29.2681Z" fill="url(#paint9_radial_255_187)"/>
<path d="M36.6559 15.4871C41.9294 15.4871 46.2044 13.3295 46.2044 10.6679C46.2044 8.00628 41.9294 5.84863 36.6559 5.84863C31.3824 5.84863 27.1074 8.00628 27.1074 10.6679C27.1074 13.3295 31.3824 15.4871 36.6559 15.4871Z" fill="url(#paint10_radial_255_187)"/>
<path d="M55.0496 40.4175C64.1914 40.4175 71.6022 36.6765 71.6022 32.0618C71.6022 27.447 64.1914 23.7061 55.0496 23.7061C45.9079 23.7061 38.4971 27.447 38.4971 32.0618C38.4971 36.6765 45.9079 40.4175 55.0496 40.4175Z" fill="url(#paint11_radial_255_187)"/>
<path d="M20.1034 34.0085C29.2451 34.0085 36.6559 30.2676 36.6559 25.6528C36.6559 21.0381 29.2451 17.2971 20.1034 17.2971C10.9616 17.2971 3.55078 21.0381 3.55078 25.6528C3.55078 30.2676 10.9616 34.0085 20.1034 34.0085Z" fill="url(#paint12_radial_255_187)"/>
<path d="M35.7939 53.1994C35.7939 53.1994 42.4426 47.2673 49.6027 45.8654C56.7628 44.4634 68.1524 41.1399 72.7911 31.8513V26.5479L35.8042 47.896L35.7939 53.1994Z" fill="url(#paint13_linear_255_187)"/>
<g style="mix-blend-mode:multiply" opacity="0.7">
<path d="M35.7939 53.1994C35.7939 53.1994 42.4426 47.2673 49.6027 45.8654C56.7628 44.4634 68.1524 41.1399 72.7911 31.8513V26.5479L35.8042 47.896L35.7939 53.1994Z" fill="#FCC7B6"/>
</g>
<path d="M-1.30859 31.9628V26.6543C-1.30859 26.6543 7.96628 28.0765 17.2411 37.2739C26.516 46.4712 35.7934 47.8909 35.7934 47.8909V53.1994C35.7934 53.1994 25.7642 52.1144 12.6024 39.6695C3.32756 30.9006 -1.30859 31.9628 -1.30859 31.9628Z" fill="url(#paint14_linear_255_187)"/>
<g style="mix-blend-mode:multiply" opacity="0.7">
<path d="M-1.30859 31.9628V26.6543C-1.30859 26.6543 7.96628 28.0765 17.2411 37.2739C26.516 46.4712 35.7934 47.8909 35.7934 47.8909V53.1994C35.7934 53.1994 25.7642 52.1144 12.6024 39.6695C3.32756 30.9006 -1.30859 31.9628 -1.30859 31.9628Z" fill="#FCC7B6"/>
</g>
<path d="M15.4899 35.5044C15.4899 35.5044 13.769 44.4178 12.966 45.5814C12.1631 46.7451 10.0125 42.3213 7.85167 42.8663C5.69086 43.4114 6.44523 46.7349 9.74399 47.1329C10.9791 47.28 12.8126 48.7174 11.9687 49.8886C11.1249 51.0598 7.74427 56.2847 13.9889 59.9555C21.2692 64.2347 17.0294 53.42 18.2901 53.7217C19.5508 54.0233 20.9291 57.5699 22.1258 58.4522C23.3226 59.3344 24.3633 58.7868 23.3302 56.3937C22.2971 54.0005 20.1747 53.0701 19.0291 51.6099C17.8835 50.1497 17.5152 47.2115 17.8246 42.4835C18.0446 39.0992 17.9474 37.9609 17.9474 37.9609L15.4899 35.5044Z" fill="url(#paint15_linear_255_187)"/>
<path d="M15.5336 49.6502L14.5695 48.915C11.1736 53.2653 10.5036 56.7739 14.2064 57.6282C17.3057 61.6742 18.776 58.1175 15.5336 49.6502Z" fill="#342113"/>
<path d="M20.9952 18.3391C20.2536 21.0897 19.6271 23.9493 19.0543 26.8495C18.4815 29.7496 17.9649 32.7081 17.52 35.7223C17.075 38.7366 16.6761 41.7888 16.3616 44.9095C16.047 48.0303 15.7888 51.1966 15.5791 54.3959L13.7891 52.9484C14.1496 49.8454 14.5357 46.7678 15.0242 43.7764C15.5126 40.7849 16.047 37.8315 16.6326 34.9365C17.2182 32.0414 17.8908 29.2147 18.6093 26.4388C19.3279 23.6628 20.1078 20.9477 20.9952 18.3391Z" fill="#342113"/>
<path d="M15.5002 40.9116C15.5002 40.9116 14.5029 47.7285 12.2117 46.7069C10.5444 45.9641 9.8412 44.5444 8.97176 44.007C8.82534 43.9188 8.65415 43.8799 8.48361 43.896C8.31308 43.9121 8.15232 43.9823 8.02531 44.0963C7.89829 44.2102 7.8118 44.3618 7.77868 44.5284C7.74556 44.6951 7.7676 44.8678 7.84151 45.021C8.13047 45.6092 9.09706 45.9311 10.2452 46.2353C12.1631 46.7424 12.5825 49.1203 14.3035 48.7704C14.7356 45.8297 15.5002 40.9116 15.5002 40.9116Z" fill="url(#paint16_linear_255_187)"/>
<path d="M18.6428 52.383C16.597 50.6084 16.2441 47.8452 16.2723 46.0098L15.9577 49.4068C15.9254 49.7318 15.9617 50.0599 16.0643 50.3702C16.1669 50.6805 16.3335 50.9663 16.5535 51.2093C18.2822 53.0852 20.0466 54.112 20.9954 55.4758C22.0719 57.0223 22.4555 58.3076 23.0411 57.727C23.6267 57.1465 21.9415 55.2299 18.6428 52.383Z" fill="url(#paint17_linear_255_187)"/>
<path d="M16.2725 46.0099L16.4489 44.1238C16.337 44.7465 16.278 45.3774 16.2725 46.0099V46.0099Z" fill="url(#paint18_linear_255_187)"/>
<path opacity="0.6" d="M24.2633 32.4801C24.2633 32.2494 23.7673 32.0618 23.1561 32.0618C22.5449 32.0618 22.0488 32.2494 22.0488 32.4801C22.0488 32.7108 22.5424 32.9009 23.1561 32.9009C23.7698 32.9009 24.2633 32.7133 24.2633 32.4801Z" fill="#DA9E6C"/>
<path opacity="0.6" d="M36.8885 32.8984C37.5 32.8984 37.9958 32.7111 37.9958 32.4801C37.9958 32.249 37.5 32.0618 36.8885 32.0618C36.277 32.0618 35.7812 32.249 35.7812 32.4801C35.7812 32.7111 36.277 32.8984 36.8885 32.8984Z" fill="#DA9E6C"/>
<path opacity="0.6" d="M35.6785 42.2934C36.2901 42.2934 36.7858 42.1061 36.7858 41.8751C36.7858 41.6441 36.2901 41.4568 35.6785 41.4568C35.067 41.4568 34.5713 41.6441 34.5713 41.8751C34.5713 42.1061 35.067 42.2934 35.6785 42.2934Z" fill="#DA9E6C"/>
<path opacity="0.6" d="M62.5212 27.3742C62.5212 27.141 62.0251 26.9534 61.4139 26.9534C60.8028 26.9534 60.3066 27.141 60.3066 27.3742C60.3066 27.6074 60.8028 27.7925 61.4139 27.7925C62.0251 27.7925 62.5212 27.6049 62.5212 27.3742Z" fill="#DA9E6C"/>
<path opacity="0.6" d="M10.5213 26.0712C11.1328 26.0712 11.6286 25.8839 11.6286 25.6529C11.6286 25.4219 11.1328 25.2346 10.5213 25.2346C9.9098 25.2346 9.41406 25.4219 9.41406 25.6529C9.41406 25.8839 9.9098 26.0712 10.5213 26.0712Z" fill="#DA9E6C"/>
<path opacity="0.6" d="M43.5291 16.027C44.1406 16.027 44.6364 15.8397 44.6364 15.6087C44.6364 15.3777 44.1406 15.1904 43.5291 15.1904C42.9176 15.1904 42.4219 15.3777 42.4219 15.6087C42.4219 15.8397 42.9176 16.027 43.5291 16.027Z" fill="#DA9E6C"/>
<path opacity="0.6" d="M50.2801 24.8671C50.8916 24.8671 51.3874 24.6798 51.3874 24.4488C51.3874 24.2178 50.8916 24.0305 50.2801 24.0305C49.6686 24.0305 49.1729 24.2178 49.1729 24.4488C49.1729 24.6798 49.6686 24.8671 50.2801 24.8671Z" fill="#DA9E6C"/>
<path opacity="0.6" d="M36.9007 22.6083C36.9007 22.3751 36.4046 22.1875 35.7934 22.1875C35.1822 22.1875 34.6836 22.3751 34.6836 22.6083C34.6836 22.8416 35.1797 23.0266 35.7934 23.0266C36.4071 23.0266 36.9007 22.839 36.9007 22.6083Z" fill="#DA9E6C"/>
<path d="M43.1024 37.6287C43.1793 37.6607 43.2627 37.6745 43.3459 37.6691C43.4291 37.6636 43.51 37.639 43.5819 37.5971C43.6539 37.5553 43.7151 37.4974 43.7605 37.4281C43.806 37.3588 43.8346 37.2799 43.8439 37.1977C44.0264 35.7274 44.2233 34.2705 44.4347 32.8272C44.8029 30.3124 45.2351 27.8533 45.7133 25.4323C46.1914 23.0113 46.7131 20.6308 47.3345 18.334C46.5929 20.5091 45.9485 22.778 45.3476 25.0875C44.7466 27.397 44.1917 29.7546 43.7008 32.1681C43.37 33.7702 43.0606 35.391 42.7725 37.0304C42.7532 37.1502 42.7747 37.273 42.8335 37.3795C42.8923 37.486 42.9851 37.57 43.0973 37.6185L43.1024 37.6287Z" fill="#342113"/>
<path d="M27.5983 19.0895C27.6824 19.1243 27.7735 19.1392 27.8644 19.1331C27.9554 19.127 28.0436 19.1 28.1222 19.0543C28.2008 19.0085 28.2677 18.9453 28.3174 18.8696C28.3672 18.7939 28.3985 18.7078 28.4089 18.618C28.6049 17.0107 28.8206 15.4179 29.0558 13.8393C29.4573 11.0913 29.9304 8.40153 30.4495 5.75234C30.9686 3.10316 31.5414 0.504684 32.2191 -2C31.4084 0.375394 30.7052 2.85726 30.0455 5.38223C29.3857 7.90719 28.7848 10.4854 28.2554 13.1244C27.8974 14.877 27.5565 16.6516 27.2326 18.4482C27.2108 18.5794 27.234 18.7141 27.2984 18.8308C27.3628 18.9475 27.4648 19.0395 27.588 19.0921L27.5983 19.0895Z" fill="#342113"/>
<path d="M67.6561 60.8453C65.3368 62.1737 66.3008 63.8266 63.9815 65.155C61.6621 66.4834 60.6981 64.828 58.3787 66.1691C56.0594 67.5101 57.0234 69.1503 54.7066 70.4787C52.3898 71.8071 51.4258 70.1517 49.1064 71.4776C46.7871 72.8034 47.7511 74.4588 45.4343 75.7872C43.1175 77.1156 42.1535 75.4602 39.8341 76.8013C37.5148 78.1424 38.3561 81.2377 35.6787 81.2377V88.336L72.7807 67.0994V60.0823C70.7963 60.9467 69.8093 59.6133 67.6561 60.8453Z" fill="url(#paint19_linear_255_187)"/>
<path d="M69.6025 65.4617C70.5911 65.4617 71.3925 64.6672 71.3925 63.6872C71.3925 62.7071 70.5911 61.9126 69.6025 61.9126C68.6139 61.9126 67.8125 62.7071 67.8125 63.6872C67.8125 64.6672 68.6139 65.4617 69.6025 65.4617Z" fill="url(#paint20_radial_255_187)"/>
<path d="M62.6539 67.3883C62.6898 67.1536 62.795 66.9347 62.9563 66.7592C63.1175 66.5837 63.3276 66.4594 63.56 66.4022C63.7924 66.3449 64.0367 66.3572 64.2621 66.4374C64.4875 66.5177 64.6838 66.6623 64.8264 66.8531C64.9689 67.0439 65.0512 67.2722 65.063 67.5093C65.0748 67.7465 65.0154 67.9817 64.8924 68.1854C64.7695 68.3891 64.5884 68.5522 64.372 68.654C64.1557 68.7557 63.9138 68.7917 63.6768 68.7573C63.519 68.7341 63.3673 68.6802 63.2304 68.5988C63.0935 68.5174 62.9742 68.4101 62.8792 68.283C62.7842 68.1558 62.7155 68.0114 62.6768 67.8579C62.6381 67.7044 62.6304 67.5448 62.6539 67.3883V67.3883Z" fill="url(#paint21_radial_255_187)"/>
<path d="M52.6351 73.0138C52.671 72.7791 52.7762 72.5602 52.9374 72.3847C53.0987 72.2092 53.3088 72.0849 53.5412 72.0277C53.7736 71.9704 54.0179 71.9827 54.2433 72.0629C54.4687 72.1432 54.665 72.2878 54.8075 72.4786C54.9501 72.6693 55.0324 72.8977 55.0442 73.1348C55.056 73.3719 54.9966 73.6072 54.8736 73.8109C54.7506 74.0146 54.5696 74.1777 54.3532 74.2794C54.1369 74.3812 53.8949 74.4172 53.658 74.3828C53.4998 74.3602 53.3478 74.3067 53.2106 74.2255C53.0734 74.1443 52.9538 74.037 52.8587 73.9097C52.7636 73.7824 52.6949 73.6377 52.6565 73.484C52.6181 73.3302 52.6109 73.1704 52.6351 73.0138V73.0138Z" fill="url(#paint22_radial_255_187)"/>
<path d="M59.2611 71.8019C59.297 71.5672 59.4022 71.3483 59.5634 71.1727C59.7247 70.9972 59.9348 70.873 60.1672 70.8158C60.3996 70.7585 60.6439 70.7708 60.8693 70.851C61.0946 70.9313 61.291 71.0759 61.4335 71.2667C61.576 71.4574 61.6584 71.6858 61.6702 71.9229C61.6819 72.16 61.6226 72.3953 61.4996 72.599C61.3766 72.8027 61.1955 72.9657 60.9792 73.0675C60.7628 73.1693 60.5209 73.2053 60.284 73.1709C60.1258 73.1483 59.9737 73.0948 59.8366 73.0136C59.6994 72.9324 59.5798 72.8251 59.4847 72.6978C59.3896 72.5705 59.3209 72.4258 59.2825 72.272C59.2441 72.1183 59.2368 71.9585 59.2611 71.8019V71.8019Z" fill="url(#paint23_radial_255_187)"/>
<path d="M68.4203 66.955C68.4561 66.7203 68.5614 66.5013 68.7226 66.3258C68.8839 66.1503 69.094 66.0261 69.3264 65.9688C69.5588 65.9116 69.8031 65.9238 70.0284 66.0041C70.2538 66.0843 70.4502 66.229 70.5927 66.4197C70.7353 66.6105 70.8176 66.8389 70.8294 67.076C70.8411 67.3131 70.7817 67.5484 70.6588 67.7521C70.5358 67.9558 70.3547 68.1188 70.1384 68.2206C69.922 68.3224 69.6801 68.3583 69.4431 68.324C69.285 68.3013 69.133 68.2479 68.9958 68.1667C68.8586 68.0855 68.739 67.9782 68.6439 67.8509C68.5488 67.7236 68.48 67.5789 68.4417 67.4251C68.4033 67.2713 68.396 67.1116 68.4203 66.955V66.955Z" fill="url(#paint24_radial_255_187)"/>
<path d="M61.9752 68.6952C62.094 67.7222 61.3946 66.838 60.4132 66.7203C59.4318 66.6025 58.5399 67.2958 58.4211 68.2688C58.3023 69.2418 59.0017 70.126 59.9831 70.2437C60.9646 70.3615 61.8564 69.6682 61.9752 68.6952Z" fill="url(#paint25_radial_255_187)"/>
<path d="M57.4346 75.9647C58.4232 75.9647 59.2246 75.1702 59.2246 74.1901C59.2246 73.21 58.4232 72.4155 57.4346 72.4155C56.446 72.4155 55.6445 73.21 55.6445 74.1901C55.6445 75.1702 56.446 75.9647 57.4346 75.9647Z" fill="url(#paint26_radial_255_187)"/>
<path d="M66.9834 70.9149C67.972 70.9149 68.7734 70.1204 68.7734 69.1403C68.7734 68.1602 67.972 67.3657 66.9834 67.3657C65.9948 67.3657 65.1934 68.1602 65.1934 69.1403C65.1934 70.1204 65.9948 70.9149 66.9834 70.9149Z" fill="url(#paint27_radial_255_187)"/>
<path d="M50.2285 75.9647C51.2171 75.9647 52.0185 75.1702 52.0185 74.1901C52.0185 73.21 51.2171 72.4155 50.2285 72.4155C49.2399 72.4155 48.4385 73.21 48.4385 74.1901C48.4385 75.1702 49.2399 75.9647 50.2285 75.9647Z" fill="url(#paint28_radial_255_187)"/>
<path d="M31.5206 76.7683C29.1987 75.4399 28.2372 77.0953 25.9153 75.7542C23.5934 74.4131 24.56 72.7729 22.2432 71.4445C19.9264 70.1161 18.9598 71.7716 16.6404 70.4432C14.321 69.1148 15.2851 67.4644 12.9657 66.1335C10.6464 64.8026 9.6849 66.4605 7.3681 65.1347C5.0513 63.8088 6.0128 62.1534 3.69344 60.825C1.54542 59.5929 0.558352 60.9239 -1.4209 60.0645V67.0436L35.6811 88.2802V81.1793C33.2851 80.9892 33.7658 78.0535 31.5206 76.7683Z" fill="url(#paint29_linear_255_187)"/>
<path d="M1.77917 65.4473C2.76436 65.3659 3.49651 64.5082 3.41447 63.5316C3.33244 62.5549 2.46728 61.829 1.48209 61.9104C0.496897 61.9917 -0.235254 62.8494 -0.153218 63.8261C-0.0711819 64.8028 0.793977 65.5286 1.77917 65.4473Z" fill="url(#paint30_radial_255_187)"/>
<path d="M8.5736 67.3883C8.53773 67.1536 8.43254 66.9347 8.27128 66.7592C8.11002 66.5837 7.89991 66.4594 7.66751 66.4022C7.43511 66.3449 7.19082 66.3572 6.96544 66.4374C6.74007 66.5177 6.54373 66.6623 6.40119 66.8531C6.25865 67.0439 6.17631 67.2722 6.16455 67.5093C6.15279 67.7465 6.21213 67.9817 6.33511 68.1854C6.45809 68.3891 6.63919 68.5522 6.85553 68.654C7.07188 68.7557 7.31379 68.7917 7.55073 68.7573C7.70859 68.7341 7.86026 68.6802 7.99712 68.5988C8.13397 68.5174 8.25333 68.4101 8.34832 68.283C8.44331 68.1558 8.5121 68.0114 8.55075 67.8579C8.58941 67.7044 8.59717 67.5448 8.5736 67.3883V67.3883Z" fill="url(#paint31_radial_255_187)"/>
<path d="M18.6023 73.0138C18.5661 72.7799 18.4608 72.5618 18.2997 72.3871C18.1387 72.2123 17.929 72.0888 17.6973 72.0319C17.4655 71.9751 17.222 71.9875 16.9973 72.0676C16.7727 72.1478 16.577 72.292 16.4349 72.4822C16.2928 72.6724 16.2106 72.9 16.1988 73.1364C16.1869 73.3728 16.2459 73.6074 16.3683 73.8106C16.4907 74.0138 16.671 74.1766 16.8865 74.2784C17.102 74.3802 17.3431 74.4165 17.5794 74.3828C17.7376 74.3601 17.8897 74.3067 18.0269 74.2255C18.1641 74.1443 18.2836 74.037 18.3788 73.9097C18.4739 73.7824 18.5426 73.6377 18.5809 73.4839C18.6193 73.3301 18.6266 73.1704 18.6023 73.0138V73.0138Z" fill="url(#paint32_radial_255_187)"/>
<path d="M10.9748 73.1617C11.6343 73.0569 12.0833 72.4418 11.9775 71.7879C11.8718 71.134 11.2513 70.6889 10.5917 70.7938C9.93216 70.8986 9.4832 71.5137 9.58897 72.1676C9.69473 72.8215 10.3152 73.2666 10.9748 73.1617Z" fill="url(#paint33_radial_255_187)"/>
<path d="M2.807 66.9548C2.77113 66.72 2.66594 66.5011 2.50468 66.3256C2.34342 66.1501 2.13334 66.0258 1.90094 65.9686C1.66854 65.9113 1.42422 65.9236 1.19884 66.0038C0.973467 66.0841 0.777132 66.2287 0.634592 66.4195C0.492051 66.6103 0.409707 66.8386 0.397947 67.0757C0.386188 67.3129 0.445532 67.5481 0.568509 67.7518C0.691486 67.9555 0.872585 68.1186 1.08893 68.2203C1.30528 68.3221 1.54719 68.3581 1.78413 68.3237C1.94213 68.3008 2.09402 68.2471 2.23104 68.1658C2.36807 68.0845 2.48751 67.9772 2.58256 67.85C2.67761 67.7228 2.74639 67.5782 2.7849 67.4246C2.82342 67.2709 2.83092 67.1113 2.807 66.9548V66.9548Z" fill="url(#paint34_radial_255_187)"/>
<path d="M12.1272 71.3647C13.1059 71.2079 13.771 70.2942 13.6129 69.324C13.4547 68.3537 12.5331 67.6943 11.5543 67.8511C10.5756 68.0079 9.91045 68.9216 10.0686 69.8918C10.2268 70.8621 11.1484 71.5215 12.1272 71.3647Z" fill="url(#paint35_radial_255_187)"/>
<path d="M13.792 75.9647C14.7806 75.9647 15.582 75.1702 15.582 74.1901C15.582 73.21 14.7806 72.4155 13.792 72.4155C12.8034 72.4155 12.002 73.21 12.002 74.1901C12.002 75.1702 12.8034 75.9647 13.792 75.9647Z" fill="url(#paint36_radial_255_187)"/>
<path d="M4.24607 70.9146C5.23468 70.9146 6.03609 70.1201 6.03609 69.1401C6.03609 68.16 5.23468 67.3655 4.24607 67.3655C3.25747 67.3655 2.45605 68.16 2.45605 69.1401C2.45605 70.1201 3.25747 70.9146 4.24607 70.9146Z" fill="url(#paint37_radial_255_187)"/>
<path d="M20.998 75.9647C21.9866 75.9647 22.788 75.1702 22.788 74.1901C22.788 73.21 21.9866 72.4155 20.998 72.4155C20.0094 72.4155 19.208 73.21 19.208 74.1901C19.208 75.1702 20.0094 75.9647 20.998 75.9647Z" fill="url(#paint38_radial_255_187)"/>
</g>
<defs>
<linearGradient id="paint0_linear_255_187" x1="23.2096" y1="10.9265" x2="42.4695" y2="39.5964" gradientUnits="userSpaceOnUse">
<stop offset="0.06" stop-color="#FFDDC7"/>
<stop offset="0.29" stop-color="#FFE6D9"/>
<stop offset="0.47" stop-color="#FCCAA7"/>
<stop offset="0.57" stop-color="#FFD0AF"/>
<stop offset="0.79" stop-color="#FFE6D9"/>
<stop offset="1" stop-color="#FBD6BC"/>
</linearGradient>
<linearGradient id="paint1_linear_255_187" x1="51.0243" y1="35.9378" x2="55.9424" y2="47.9842" gradientUnits="userSpaceOnUse">
<stop offset="0.1" stop-color="#FADABE"/>
<stop offset="1" stop-color="#FFB2A2"/>
</linearGradient>
<linearGradient id="paint2_linear_255_187" x1="57.3124" y1="76.994" x2="50.8273" y2="40.5652" gradientUnits="userSpaceOnUse">
<stop stop-color="#EFE0BC"/>
<stop offset="0.36" stop-color="#F6EDD3"/>
<stop offset="0.72" stop-color="#FAF6E2"/>
<stop offset="1" stop-color="#FCF9E8"/>
</linearGradient>
<linearGradient id="paint3_linear_255_187" x1="22.589" y1="34.0188" x2="15.3157" y2="47.0347" gradientUnits="userSpaceOnUse">
<stop offset="0.1" stop-color="#FADABE"/>
<stop offset="1" stop-color="#FFB2A2"/>
</linearGradient>
<linearGradient id="paint4_linear_255_187" x1="9.94123" y1="84.2316" x2="20.2949" y2="48.8334" gradientUnits="userSpaceOnUse">
<stop stop-color="#EFE0BC"/>
<stop offset="0.05" stop-color="#F0E2C0"/>
<stop offset="0.39" stop-color="#F7EFD6"/>
<stop offset="0.71" stop-color="#FBF6E3"/>
<stop offset="1" stop-color="#FCF9E8"/>
</linearGradient>
<linearGradient id="paint5_linear_255_187" x1="17.2412" y1="55.6356" x2="25.3449" y2="55.6356" gradientUnits="userSpaceOnUse">
<stop stop-color="#FFB2A2"/>
<stop offset="1" stop-color="#EA937A"/>
</linearGradient>
<radialGradient id="paint6_radial_255_187" cx="0" cy="0" r="1" gradientUnits="userSpaceOnUse" gradientTransform="translate(35.0885 37.9223) scale(7.5769 3.15484)">
<stop stop-color="#FFB2A2"/>
<stop offset="0.08" stop-color="#FFB3A3" stop-opacity="0.96"/>
<stop offset="0.22" stop-color="#FEB7A6" stop-opacity="0.87"/>
<stop offset="0.39" stop-color="#FEBEAA" stop-opacity="0.71"/>
<stop offset="0.6" stop-color="#FCC7B0" stop-opacity="0.49"/>
<stop offset="0.82" stop-color="#FBD2B8" stop-opacity="0.21"/>
<stop offset="0.98" stop-color="#FADABE" stop-opacity="0"/>
</radialGradient>
<radialGradient id="paint7_radial_255_187" cx="0" cy="0" r="1" gradientUnits="userSpaceOnUse" gradientTransform="translate(30.5435 30.0112) scale(12.4713 5.19276)">
<stop offset="0.02" stop-color="#F6E5D9"/>
<stop offset="0.12" stop-color="#F6E5D9" stop-opacity="0.98"/>
<stop offset="0.24" stop-color="#F6E5D9" stop-opacity="0.92"/>
<stop offset="0.38" stop-color="#F6E5D9" stop-opacity="0.81"/>
<stop offset="0.52" stop-color="#F6E5D9" stop-opacity="0.67"/>
<stop offset="0.68" stop-color="#F6E5D9" stop-opacity="0.49"/>
<stop offset="0.84" stop-color="#F6E5D9" stop-opacity="0.27"/>
<stop offset="1" stop-color="#F6E5D9" stop-opacity="0"/>
</radialGradient>
<radialGradient id="paint8_radial_255_187" cx="0" cy="0" r="1" gradientUnits="userSpaceOnUse" gradientTransform="translate(40.0927 21.7478) scale(15.3098 6.37462)">
<stop offset="0.02" stop-color="#F6E5D9"/>
<stop offset="0.31" stop-color="#F6E5D9" stop-opacity="0.62"/>
<stop offset="0.67" stop-color="#F6E5D9" stop-opacity="0.18"/>
<stop offset="0.83" stop-color="#F6E5D9" stop-opacity="0"/>
</radialGradient>
<radialGradient id="paint9_radial_255_187" cx="0" cy="0" r="1" gradientUnits="userSpaceOnUse" gradientTransform="translate(55.0495 24.0033) scale(7.5769 3.15484)">
<stop offset="0.02" stop-color="#F6E5D9"/>
<stop offset="0.12" stop-color="#F6E5D9" stop-opacity="0.98"/>
<stop offset="0.24" stop-color="#F6E5D9" stop-opacity="0.92"/>
<stop offset="0.38" stop-color="#F6E5D9" stop-opacity="0.81"/>
<stop offset="0.52" stop-color="#F6E5D9" stop-opacity="0.67"/>
<stop offset="0.68" stop-color="#F6E5D9" stop-opacity="0.49"/>
<stop offset="0.84" stop-color="#F6E5D9" stop-opacity="0.27"/>
<stop offset="1" stop-color="#F6E5D9" stop-opacity="0"/>
</radialGradient>
<radialGradient id="paint10_radial_255_187" cx="0" cy="0" r="1" gradientUnits="userSpaceOnUse" gradientTransform="translate(36.6533 10.26) scale(7.5769 3.15484)">
<stop stop-color="#FFB2A2"/>
<stop offset="0.08" stop-color="#FFB3A3" stop-opacity="0.96"/>
<stop offset="0.22" stop-color="#FEB7A6" stop-opacity="0.87"/>
<stop offset="0.39" stop-color="#FEBEAA" stop-opacity="0.71"/>
<stop offset="0.6" stop-color="#FCC7B0" stop-opacity="0.49"/>
<stop offset="0.82" stop-color="#FBD2B8" stop-opacity="0.21"/>
<stop offset="0.98" stop-color="#FADABE" stop-opacity="0"/>
</radialGradient>
<radialGradient id="paint11_radial_255_187" cx="0" cy="0" r="1" gradientUnits="userSpaceOnUse" gradientTransform="translate(55.0496 31.5966) scale(13.1362 5.46959)">
<stop stop-color="#FFB2A2"/>
<stop offset="0.08" stop-color="#FFB3A3" stop-opacity="0.96"/>
<stop offset="0.22" stop-color="#FEB7A6" stop-opacity="0.87"/>
<stop offset="0.39" stop-color="#FEBEAA" stop-opacity="0.71"/>
<stop offset="0.6" stop-color="#FCC7B0" stop-opacity="0.49"/>
<stop offset="0.82" stop-color="#FBD2B8" stop-opacity="0.21"/>
<stop offset="0.98" stop-color="#FADABE" stop-opacity="0"/>
</radialGradient>
<radialGradient id="paint12_radial_255_187" cx="0" cy="0" r="1" gradientUnits="userSpaceOnUse" gradientTransform="translate(20.1008 25.2035) scale(13.1362 5.46959)">
<stop stop-color="#FFB2A2"/>
<stop offset="0.08" stop-color="#FFB3A3" stop-opacity="0.96"/>
<stop offset="0.22" stop-color="#FEB7A6" stop-opacity="0.87"/>
<stop offset="0.39" stop-color="#FEBEAA" stop-opacity="0.71"/>
<stop offset="0.6" stop-color="#FCC7B0" stop-opacity="0.49"/>
<stop offset="0.82" stop-color="#FBD2B8" stop-opacity="0.21"/>
<stop offset="0.98" stop-color="#FADABE" stop-opacity="0"/>
</radialGradient>
<linearGradient id="paint13_linear_255_187" x1="35.7939" y1="39.8698" x2="72.7809" y2="39.8698" gradientUnits="userSpaceOnUse">
<stop offset="0.54" stop-color="#FAC5A5"/>
<stop offset="1" stop-color="#FBD6BC"/>
</linearGradient>
<linearGradient id="paint14_linear_255_187" x1="-1.30859" y1="39.9281" x2="35.7934" y2="39.9281" gradientUnits="userSpaceOnUse">
<stop offset="0.54" stop-color="#FAC5A5"/>
<stop offset="1" stop-color="#FBD6BC"/>
</linearGradient>
<linearGradient id="paint15_linear_255_187" x1="27.5803" y1="23.635" x2="12.1226" y2="58.6253" gradientUnits="userSpaceOnUse">
<stop offset="0.1" stop-color="#FADABE"/>
<stop offset="1" stop-color="#FFB2A2"/>
</linearGradient>
<linearGradient id="paint16_linear_255_187" x1="16.1063" y1="37.8543" x2="7.81248" y2="52.4273" gradientUnits="userSpaceOnUse">
<stop stop-color="#F9C543"/>
<stop offset="0.95" stop-color="#FCEB7F"/>
</linearGradient>
<linearGradient id="paint17_linear_255_187" x1="22.7291" y1="46.5751" x2="15.1496" y2="59.8904" gradientUnits="userSpaceOnUse">
<stop stop-color="#F9C543"/>
<stop offset="0.95" stop-color="#FCEB7F"/>
</linearGradient>
<linearGradient id="paint18_linear_255_187" x1="17.1214" y1="43.7537" x2="15.2863" y2="46.9742" gradientUnits="userSpaceOnUse">
<stop stop-color="#F9C543"/>
<stop offset="0.95" stop-color="#FCEB7F"/>
</linearGradient>
<linearGradient id="paint19_linear_255_187" x1="49.4721" y1="65.7001" x2="60.0277" y2="84.8671" gradientUnits="userSpaceOnUse">
<stop offset="0.05" stop-color="#F6E4BA"/>
<stop offset="1" stop-color="#F9C543"/>
</linearGradient>
<radialGradient id="paint20_radial_255_187" cx="0" cy="0" r="1" gradientUnits="userSpaceOnUse" gradientTransform="translate(69.6025 63.6872) rotate(180) scale(1.79002 1.77457)">
<stop offset="0.05" stop-color="#F6E4BA" stop-opacity="0"/>
<stop offset="1" stop-color="#F9C543" stop-opacity="0.8"/>
</radialGradient>
<radialGradient id="paint21_radial_255_187" cx="0" cy="0" r="1" gradientUnits="userSpaceOnUse" gradientTransform="translate(64.5444 67.4682) rotate(-171.458) scale(1.21088 1.2009)">
<stop offset="0.05" stop-color="#F6E4BA" stop-opacity="0"/>
<stop offset="1" stop-color="#F9C543" stop-opacity="0.8"/>
</radialGradient>
<radialGradient id="paint22_radial_255_187" cx="0" cy="0" r="1" gradientUnits="userSpaceOnUse" gradientTransform="translate(54.532 73.1324) rotate(-171.458) scale(1.21089 1.2009)">
<stop offset="0.05" stop-color="#F6E4BA" stop-opacity="0"/>
<stop offset="1" stop-color="#F9C543" stop-opacity="0.8"/>
</radialGradient>
<radialGradient id="paint23_radial_255_187" cx="0" cy="0" r="1" gradientUnits="userSpaceOnUse" gradientTransform="translate(61.1538 71.8984) rotate(-171.458) scale(1.21087 1.20089)">
<stop offset="0.05" stop-color="#F6E4BA" stop-opacity="0"/>
<stop offset="1" stop-color="#F9C543" stop-opacity="0.8"/>
</radialGradient>
<radialGradient id="paint24_radial_255_187" cx="0" cy="0" r="1" gradientUnits="userSpaceOnUse" gradientTransform="translate(70.3156 67.0181) rotate(-171.458) scale(1.21089 1.20089)">
<stop offset="0.05" stop-color="#F6E4BA" stop-opacity="0"/>
<stop offset="1" stop-color="#F9C543" stop-opacity="0.8"/>
</radialGradient>
<radialGradient id="paint25_radial_255_187" cx="0" cy="0" r="1" gradientUnits="userSpaceOnUse" gradientTransform="translate(59.9426 67.8992) rotate(179.989) scale(1.78509 1.76969)">
<stop offset="0.05" stop-color="#F6E4BA" stop-opacity="0"/>
<stop offset="1" stop-color="#F9C543" stop-opacity="0.8"/>
</radialGradient>
<radialGradient id="paint26_radial_255_187" cx="0" cy="0" r="1" gradientUnits="userSpaceOnUse" gradientTransform="translate(57.4371 74.1901) rotate(180) scale(1.79002 1.77457)">
<stop offset="0.05" stop-color="#F6E4BA" stop-opacity="0"/>
<stop offset="1" stop-color="#F9C543" stop-opacity="0.8"/>
</radialGradient>
<radialGradient id="paint27_radial_255_187" cx="0" cy="0" r="1" gradientUnits="userSpaceOnUse" gradientTransform="translate(66.9834 69.1403) rotate(180) scale(1.79002 1.77457)">
<stop offset="0.05" stop-color="#F6E4BA" stop-opacity="0"/>
<stop offset="1" stop-color="#F9C543" stop-opacity="0.8"/>
</radialGradient>
<radialGradient id="paint28_radial_255_187" cx="0" cy="0" r="1" gradientUnits="userSpaceOnUse" gradientTransform="translate(50.2311 74.1901) rotate(180) scale(1.79002 1.77457)">
<stop offset="0.05" stop-color="#F6E4BA" stop-opacity="0"/>
<stop offset="1" stop-color="#F9C543" stop-opacity="0.8"/>
</radialGradient>
<linearGradient id="paint29_linear_255_187" x1="21.8264" y1="62.9393" x2="10.4077" y2="90.761" gradientUnits="userSpaceOnUse">
<stop offset="0.05" stop-color="#F6E4BA"/>
<stop offset="1" stop-color="#F9C543"/>
</linearGradient>
<radialGradient id="paint30_radial_255_187" cx="0" cy="0" r="1" gradientUnits="userSpaceOnUse" gradientTransform="translate(1.62623 63.6874) scale(1.79002 1.77457)">
<stop offset="0.05" stop-color="#F6E4BA" stop-opacity="0"/>
<stop offset="1" stop-color="#F9C543" stop-opacity="0.8"/>
</radialGradient>
<radialGradient id="paint31_radial_255_187" cx="0" cy="0" r="1" gradientUnits="userSpaceOnUse" gradientTransform="translate(7.36457 67.5564) rotate(-8.71536) scale(1.2093 1.19935)">
<stop offset="0.05" stop-color="#F6E4BA" stop-opacity="0"/>
<stop offset="1" stop-color="#F9C543" stop-opacity="0.8"/>
</radialGradient>
<radialGradient id="paint32_radial_255_187" cx="0" cy="0" r="1" gradientUnits="userSpaceOnUse" gradientTransform="translate(17.3805 73.1805) rotate(-8.71533) scale(1.2093 1.19934)">
<stop offset="0.05" stop-color="#F6E4BA" stop-opacity="0"/>
<stop offset="1" stop-color="#F9C543" stop-opacity="0.8"/>
</radialGradient>
<radialGradient id="paint33_radial_255_187" cx="0" cy="0" r="1" gradientUnits="userSpaceOnUse" gradientTransform="translate(10.7659 71.9715) rotate(-8.71532) scale(1.20929 1.19934)">
<stop offset="0.05" stop-color="#F6E4BA" stop-opacity="0"/>
<stop offset="1" stop-color="#F9C543" stop-opacity="0.8"/>
</radialGradient>
<radialGradient id="paint34_radial_255_187" cx="0" cy="0" r="1" gradientUnits="userSpaceOnUse" gradientTransform="translate(1.59625 67.122) rotate(-8.71532) scale(1.2093 1.19934)">
<stop offset="0.05" stop-color="#F6E4BA" stop-opacity="0"/>
<stop offset="1" stop-color="#F9C543" stop-opacity="0.8"/>
</radialGradient>
<radialGradient id="paint35_radial_255_187" cx="0" cy="0" r="1" gradientUnits="userSpaceOnUse" gradientTransform="translate(11.8254 69.6343) rotate(0.108513) scale(1.79511 1.77962)">
<stop offset="0.05" stop-color="#F6E4BA" stop-opacity="0"/>
<stop offset="1" stop-color="#F9C543" stop-opacity="0.8"/>
</radialGradient>
<radialGradient id="paint36_radial_255_187" cx="0" cy="0" r="1" gradientUnits="userSpaceOnUse" gradientTransform="translate(13.792 74.1901) scale(1.79002 1.77457)">
<stop offset="0.05" stop-color="#F6E4BA" stop-opacity="0"/>
<stop offset="1" stop-color="#F9C543" stop-opacity="0.8"/>
</radialGradient>
<radialGradient id="paint37_radial_255_187" cx="0" cy="0" r="1" gradientUnits="userSpaceOnUse" gradientTransform="translate(4.24607 69.1401) scale(1.79002 1.77457)">
<stop offset="0.05" stop-color="#F6E4BA" stop-opacity="0"/>
<stop offset="1" stop-color="#F9C543" stop-opacity="0.8"/>
</radialGradient>
<radialGradient id="paint38_radial_255_187" cx="0" cy="0" r="1" gradientUnits="userSpaceOnUse" gradientTransform="translate(20.998 74.1901) scale(1.79002 1.77457)">
<stop offset="0.05" stop-color="#F6E4BA" stop-opacity="0"/>
<stop offset="1" stop-color="#F9C543" stop-opacity="0.8"/>
</radialGradient>
</defs>
</svg>
