<svg width="50" height="50" viewBox="0 0 50 50" fill="none" xmlns="http://www.w3.org/2000/svg">
<path d="M0 8C0 3.58172 3.58172 0 8 0H50V50H8C3.58172 50 0 46.4183 0 42V8Z" fill="#25D366"/>
<g clip-path="url(#clip0_236_11)">
<path d="M21.0445 30.4117L21.6478 30.7642C22.6653 31.3576 23.8225 31.6692 25.0003 31.6667C26.3189 31.6667 27.6078 31.2758 28.7041 30.5432C29.8005 29.8107 30.6549 28.7695 31.1595 27.5513C31.6641 26.3331 31.7961 24.9927 31.5389 23.6995C31.2817 22.4063 30.6467 21.2184 29.7144 20.286C28.782 19.3537 27.5941 18.7187 26.3009 18.4615C25.0077 18.2043 23.6673 18.3363 22.4491 18.8409C21.2309 19.3455 20.1897 20.2 19.4572 21.2963C18.7247 22.3926 18.3337 23.6815 18.3337 25.0001C18.3337 26.1967 18.6478 27.3442 19.237 28.3534L19.5887 28.9567L19.0445 30.9576L21.0445 30.4117ZM16.6703 33.3334L17.797 29.1934C17.0546 27.9208 16.6646 26.4734 16.667 25.0001C16.667 20.3976 20.3978 16.6667 25.0003 16.6667C29.6028 16.6667 33.3337 20.3976 33.3337 25.0001C33.3337 29.6026 29.6028 33.3334 25.0003 33.3334C23.5277 33.3358 22.0809 32.9461 20.8087 32.2042L16.6703 33.3334ZM21.9928 21.0901C22.1045 21.0817 22.217 21.0817 22.3287 21.0867C22.3737 21.0901 22.4187 21.0951 22.4637 21.1001C22.5962 21.1151 22.742 21.1959 22.7912 21.3076C23.0395 21.8709 23.2812 22.4384 23.5145 23.0076C23.5662 23.1342 23.5353 23.2967 23.437 23.4551C23.3694 23.5621 23.2962 23.6656 23.2178 23.7651C23.1237 23.8859 22.9212 24.1076 22.9212 24.1076C22.9212 24.1076 22.8387 24.2059 22.8703 24.3284C22.882 24.3751 22.9203 24.4426 22.9553 24.4992L23.0045 24.5784C23.2178 24.9342 23.5045 25.2951 23.8545 25.6351C23.9545 25.7317 24.052 25.8309 24.157 25.9234C24.547 26.2676 24.9887 26.5484 25.4653 26.7567L25.4695 26.7584C25.5403 26.7892 25.5762 26.8059 25.6795 26.8501C25.7312 26.8717 25.7845 26.8909 25.8387 26.9051C25.8946 26.9193 25.9536 26.9167 26.008 26.8974C26.0625 26.8781 26.11 26.8431 26.1445 26.7967C26.7478 26.0659 26.8028 26.0184 26.8078 26.0184V26.0201C26.8498 25.981 26.8995 25.9513 26.9539 25.9331C27.0082 25.9148 27.0658 25.9084 27.1228 25.9142C27.1728 25.9176 27.2237 25.9267 27.2703 25.9476C27.7128 26.1501 28.437 26.4659 28.437 26.4659L28.922 26.6834C29.0037 26.7226 29.0778 26.8151 29.0803 26.9042C29.0837 26.9601 29.0887 27.0501 29.0695 27.2151C29.0428 27.4309 28.9778 27.6901 28.9128 27.8259C28.8683 27.9186 28.8092 28.0036 28.7378 28.0776C28.6537 28.1659 28.5617 28.2462 28.4628 28.3176C28.4286 28.3433 28.3939 28.3683 28.3587 28.3926C28.255 28.4583 28.1485 28.5195 28.0395 28.5759C27.8249 28.6899 27.588 28.7553 27.3453 28.7676C27.1912 28.7759 27.037 28.7876 26.882 28.7792C26.8753 28.7792 26.4087 28.7067 26.4087 28.7067C25.2239 28.3951 24.1282 27.8113 23.2087 27.0017C23.0203 26.8359 22.8462 26.6576 22.6678 26.4801C21.9262 25.7426 21.3662 24.9467 21.0262 24.1951C20.8521 23.8262 20.7581 23.4246 20.7503 23.0167C20.7469 22.5108 20.9123 22.0181 21.2203 21.6167C21.2812 21.5384 21.3387 21.4567 21.4378 21.3626C21.5437 21.2626 21.6103 21.2092 21.6828 21.1726C21.7792 21.1243 21.8844 21.0959 21.992 21.0892L21.9928 21.0901Z" fill="white"/>
</g>
<defs>
<clipPath id="clip0_236_11">
<rect width="20" height="20" fill="white" transform="translate(15 15)"/>
</clipPath>
</defs>
</svg>
