<svg width="75" height="75" viewBox="0 0 75 75" fill="none" xmlns="http://www.w3.org/2000/svg">
<mask id="mask0_255_188" style="mask-type:alpha" maskUnits="userSpaceOnUse" x="0" y="0" width="75" height="75">
<circle cx="37.5" cy="37.5" r="37.5" fill="#D9D9D9"/>
</mask>
<g mask="url(#mask0_255_188)">
<path d="M4.74435 0.676329C-2.927 3.81131 -9.11512 10.3245 -11.8064 18.0971C-14.4976 25.8696 -13.6493 34.7725 -9.53566 41.9094C-5.84076 48.3175 0.20022 53.1452 3.94143 59.5268C7.88883 66.2622 8.99057 74.1975 10.6554 81.8082C12.3203 89.4189 14.8853 97.3231 20.8209 102.433C27.0063 107.765 36.1164 109.075 43.9948 106.823C51.8733 104.572 58.5483 99.1091 63.3749 92.5438C68.2015 85.9784 71.3251 78.3376 73.7956 70.5952C78.1846 56.8363 80.6465 42.5282 81.11 28.0846C81.5096 15.5126 79.8538 1.7134 70.7874 -7.0962C65.7809 -11.9615 59.0396 -14.7142 52.2303 -16.3832C47.7797 -17.4751 42.9576 -18.1262 38.7105 -16.417C34.4415 -14.6995 31.456 -10.896 27.8111 -8.10583C20.9853 -2.88757 11.7899 -2.20259 4.74435 0.676329Z" fill="#B0846B"/>
<path d="M50.8034 16.424C47.5608 17.0157 44.8086 17.9082 42.1903 19.1226C40.5138 19.9084 38.8879 20.7996 37.3224 21.7908C33.1016 24.4294 28.921 27.3445 24.1059 28.5683C22.5382 28.967 20.8519 29.0588 19.4115 28.3774C18.5834 27.9861 17.6368 26.3083 17.6368 26.3083C16.7604 23.4167 16.7578 -0.459098 17.6368 -3.59621C20.7186 -6.75558 24.3277 -1.02336 29.4228 -2.05489C30.8967 -2.35444 31.9519 -13.8478 33.5411 -1.54124C40.6029 -3.60257 41.6965 2.00607 50.7981 -0.622316C50.1716 0.826152 49.2511 3.44984 49.0126 4.32284C48.7017 5.45962 48.9202 6.5141 49.0052 7.65223C49.2283 10.6301 49.5828 11.296 50.8034 16.424Z" fill="#FFF4EB"/>
<path d="M53.1973 22.7253C50.3761 24.244 47.3371 25.1399 44.5172 26.4973C44.2908 26.6066 44.065 26.7186 43.8419 26.8346C38.2765 29.7147 33.8983 34.8407 31.9031 40.8126C31.6612 42.1916 31.2063 43.9262 30.7514 45.6613C29.6728 46.9648 28.6075 48.3012 27.6227 49.6964C26.1226 48.4287 25.0768 46.6524 24.1342 44.8673C23.1915 43.0822 22.3253 41.2363 21.0764 39.655C19.5864 36.6757 17.4586 34.0081 16.8429 30.7968C16.4463 28.7203 16.7089 26.363 17.1833 24.3027C17.4928 26.4615 18.4093 28.1178 20.1117 28.644C21.8141 29.1702 23.6873 28.779 25.3749 28.2028C29.8309 26.6916 33.8071 23.937 37.8256 21.4793C39.1851 20.6416 40.589 19.8793 42.031 19.1956C44.8165 17.8749 47.7679 16.9427 50.8035 16.4248C51.3623 18.3813 52.2084 20.7021 53.1973 22.7253Z" fill="#C9D3CA"/>
<path d="M53.1976 22.7253C50.3763 24.2439 47.3374 25.1398 44.5175 26.4972C43.3116 24.2176 42.5806 21.7288 42.0312 19.1949C44.8168 17.8741 47.7682 16.942 50.8038 16.4241C51.3625 18.3812 52.2087 20.702 53.1976 22.7253Z" fill="#AFBAB0"/>
<path d="M22.2962 16.7385C21.9613 19.2677 21.9224 21.8278 22.1803 24.3661C21.7868 21.8081 21.591 19.2232 21.5948 16.6346C21.5948 15.5343 21.6618 14.353 22.3257 13.48C22.3291 14.6235 22.4242 15.7744 22.2962 16.7385Z" fill="#FAEBDE"/>
<path d="M21.9488 15.1833C22.2932 15.6556 22.2516 16.2958 22.1947 16.8781C22.133 17.5127 22.071 18.1477 22.0084 18.7833C21.794 18.5809 21.6989 18.2773 21.6667 17.9825C21.6346 17.6876 21.6554 17.3888 21.6312 17.0933C21.6031 16.7485 21.5126 16.4078 21.5294 16.0624C21.5461 15.717 21.7043 15.3473 21.9488 15.1833Z" fill="#E4C8B3"/>
<path d="M57.2166 44.0577C56.3376 51.8344 51.9004 59.7257 47.3982 66.1059C42.8961 72.486 40.5822 75.5136 36.9863 80.6506C35.288 78.6483 31.7947 81.3064 30.836 78.8203C29.9034 76.401 28.7671 76.0273 26.1986 75.5136C22.6028 72.9452 21.039 75.0216 18.4932 70.3767C21.0617 61.6438 26.1986 49.8287 30.7509 45.6607C31.92 38.3745 34.3205 34.8049 38.2713 30.8258C40.3053 28.779 42.2717 27.4263 44.4075 26.328C46.9601 25.0144 49.7558 24.0645 53.1968 22.7253C55.6924 29.714 58.05 36.6784 57.2166 44.0577Z" fill="#FFF4EB"/>
<path d="M57.2165 44.0577C56.3375 51.8344 51.9003 59.7257 47.3982 66.1059C42.896 72.486 37.9068 78.491 34.7358 85.6383C33.0374 83.6359 31.7947 81.3064 30.8359 78.8203C31.0698 78.1585 31.3263 77.5067 31.601 76.8678C33.688 72.0151 36.7598 67.6623 39.1763 62.9661C44.9193 51.802 46.7691 38.6666 44.4021 26.328C46.9546 25.0144 49.7504 24.0645 53.1914 22.7253C55.6923 29.714 58.05 36.6784 57.2165 44.0577Z" fill="#FAEBDE"/>
<path d="M27.6 49.6795C26.7167 50.9812 25.9244 52.3433 25.229 53.7558C24.894 54.4371 23.4788 57.212 23.1157 58.0479C20.4358 53.8536 20.0335 53.4246 17.5022 47.4478C15.4548 41.2174 15.0562 34.0655 16.6467 28.1589C16.6467 28.5266 16.6554 28.87 16.6735 29.1932C16.8249 31.8992 17.5893 33.183 18.6164 35.07C19.7815 37.206 21.0376 39.2738 22.2543 41.382C23.9011 44.229 25.6617 47.0295 27.6 49.6795Z" fill="#E3C6AF"/>
<path d="M51.0585 67.7823C50.8026 67.8497 50.4556 67.9354 50.1923 67.9213C49.929 67.9071 49.6563 67.7985 49.5055 67.5779C49.3548 67.3572 49.3568 67.0719 49.4533 66.8303C49.5596 66.5918 49.7281 66.3869 49.941 66.2373C50.7637 65.616 51.8745 65.5984 52.775 65.6403C53.1271 65.3752 53.5033 65.1441 53.8985 64.9501C54.8476 64.0617 55.7261 63.0999 56.5261 62.0734C56.7492 61.3637 57.3247 60.7025 58.0094 60.3477C58.1374 60.6931 58.4737 60.9042 58.737 61.0095C58.1213 61.1444 57.5525 61.7118 57.247 62.2664C56.9415 62.8209 56.8055 63.451 56.7439 64.0265C55.8334 64.2545 55.0281 64.8779 54.6717 65.6956C53.8878 65.6349 53.0718 65.6673 52.3569 65.9985C51.6421 66.3298 51.1322 66.9929 51.0585 67.7823Z" fill="#FAEBDE"/>
<path d="M58.4895 56.679C57.8866 57.0345 57.6005 57.8292 57.8062 58.51C57.5575 58.6977 57.3538 58.9392 57.2101 59.2168C57.0664 59.4943 56.9865 59.8008 56.9761 60.1136C56.585 60.1156 56.1984 60.1986 55.8406 60.3575C55.4827 60.5164 55.1611 60.7478 54.8958 61.0372C54.455 61.0804 54.0128 61.0014 53.572 60.9603C53.1311 60.9191 52.6689 60.9191 52.2676 61.1074C51.8662 61.2956 51.5433 61.7145 51.6143 62.1564C53.2223 62.6287 55.0472 62.6179 56.5875 62.0748C56.8602 61.3873 57.3767 60.658 58.0098 60.3477C58.1773 59.6137 58.2932 59.0078 58.5384 58.2968C58.5823 58.1475 58.6488 58.006 58.7354 57.8771C58.7792 57.813 58.8365 57.7594 58.9032 57.7201C58.9699 57.6808 59.0444 57.6568 59.1213 57.6498C58.9331 57.6424 58.7636 57.5412 58.5853 57.4757C58.4071 57.4103 58.3596 56.8517 58.4895 56.679Z" fill="#D4B092"/>
<path d="M51.6651 62.1679C51.4564 62.1146 51.2381 62.1118 51.0281 62.1599C50.8182 62.208 50.6226 62.3056 50.4573 62.4446C50.2921 62.5836 50.162 62.76 50.0776 62.9595C49.9932 63.159 49.9571 63.3758 49.9721 63.5921C50.6038 63.7736 51.2356 63.9544 51.9096 64.1318C52.537 64.4654 53.2202 64.6793 53.9249 64.7626C54.903 64.0023 55.906 63.0476 56.6175 62.0303C55.041 62.5309 53.2026 62.5605 51.6651 62.1679Z" fill="#E3C6AF"/>
<path d="M27.6004 49.6795C26.7171 50.9812 25.9248 52.3432 25.2293 53.7557C22.8041 50.0876 20.5617 46.2907 18.9598 42.1983C17.3439 38.0722 16.4039 33.6013 16.6739 29.1931C16.8253 31.8991 17.5897 33.183 18.6168 35.07C19.7819 37.2059 21.038 39.2737 22.2547 41.382C23.9015 44.229 25.6621 47.0294 27.6004 49.6795Z" fill="#D4B092"/>
<path d="M63.6234 57.9615C63.6529 58.3393 63.6811 58.7231 63.6013 59.0935C63.5216 59.4639 63.3186 59.8248 62.987 60.003C61.4065 61.7656 59.9553 63.6415 58.6449 65.616C58.4734 65.8474 58.1016 66.0208 57.7599 66.1665L54.5977 67.5111C53.381 67.7432 52.2447 67.9159 51.1078 68.0839C51.0322 67.8011 51.0305 67.5034 51.1028 67.2197C51.1751 66.936 51.319 66.6759 51.5205 66.4647C51.8917 66.0721 52.4116 65.8495 52.9402 65.7476C53.4688 65.6457 54.0121 65.6538 54.5481 65.6633C54.9467 64.8908 55.7493 64.289 56.6531 63.9834C56.7683 63.4025 56.9379 62.7845 57.2494 62.234C57.5609 61.6835 58.0339 61.1991 58.6335 61.0082C58.3314 61.021 58.0634 60.7815 57.9917 60.511C57.92 60.2404 57.9917 59.9544 58.0587 59.6838C58.1592 59.2961 58.2599 58.9085 58.3609 58.5208C58.4279 58.2779 58.4949 58.0249 58.6583 57.8367C58.7997 57.6761 58.7863 57.6781 59.1233 57.6822C58.2021 57.6235 58.3535 56.8382 58.4768 56.6877C58.2262 56.8558 57.9413 56.9649 57.6431 57.0072C57.345 57.0495 57.0412 57.0238 56.7543 56.932C56.7791 57.102 56.7148 57.2922 56.6504 57.4832C56.1922 58.3899 56.2866 59.6299 56.3074 60.8301C56.3282 62.0303 56.2404 63.3107 55.543 64.2836C55.1959 64.7653 54.6198 65.1667 54.0456 65.0257C53.653 64.9306 53.3502 64.598 53.1941 64.2229C53.038 63.8478 53.0058 63.4349 52.9931 63.0288C52.9407 61.4401 53.1333 59.853 53.5639 58.3238C53.107 53.3988 54.5454 48.3255 57.4497 44.3053C57.5078 43.8703 57.5629 43.435 57.6152 42.9991C59.3357 28.5205 57.3706 13.8544 57.1877 -0.752441C58.3344 -0.575321 59.4706 -0.335 60.5912 -0.0325812C62.9059 0.574602 65.5556 1.49077 67.6051 2.59854C68.9202 18.0244 64.2365 33.434 62.7237 48.8409C63.1605 51.8849 63.3923 54.9235 63.6234 57.9615Z" fill="#FFF4EB"/>
<path d="M60.5975 -0.0284472C60.5367 12.4642 59.9018 24.9362 58.6928 37.3875C58.5072 39.2907 58.3028 41.2188 57.6208 43.0033C59.3413 28.5247 57.3763 13.8585 57.1934 -0.748291C58.3403 -0.571195 59.4767 -0.33089 60.5975 -0.0284472V-0.0284472Z" fill="#E8D5C5"/>
<path d="M54.5951 62.6752C54.4176 62.7306 54.2273 62.6799 54.0437 62.6509C53.8602 62.6219 53.6498 62.6226 53.5165 62.7535C53.4106 62.8574 53.3825 63.0159 53.3691 63.1643C53.3421 63.4566 53.3502 63.7511 53.3932 64.0414C53.4421 64.3726 53.5547 64.7235 53.8287 64.9137C54.1677 65.1485 54.6648 65.0419 54.9542 64.7464C55.2437 64.4509 55.3495 64.0137 55.3381 63.5995C55.3321 63.3674 55.2892 63.1272 55.1546 62.939C55.0199 62.7508 54.776 62.6192 54.5951 62.6752Z" fill="#D6A7B3"/>
<path d="M50.5179 63.7296C50.4362 63.7033 50.2359 63.5866 50.1528 63.5671C50.0697 63.5475 50.0403 63.5778 49.9686 63.6251C49.8969 63.6723 49.917 63.8558 49.9773 63.9165C50.0098 63.9437 50.0493 63.961 50.0912 63.9664C50.6549 64.0926 51.2331 64.1405 51.8096 64.1088C51.3494 63.9793 50.8482 63.8362 50.5179 63.7296Z" fill="#D6A7B3"/>
<path d="M49.9824 67.7822C49.9272 67.7862 49.8739 67.8038 49.8271 67.8336C49.7803 67.8634 49.7416 67.9044 49.7144 67.9529C49.6615 68.0501 49.6803 68.102 49.76 68.1553C50.2189 68.1553 50.6309 68.1027 50.9793 67.8031C50.5901 67.8976 50.2705 67.9178 49.9824 67.7822Z" fill="#D6A7B3"/>
<path d="M51.1731 67.8591C51.0996 67.8794 51.0312 67.9147 50.9721 67.963C50.9431 67.988 50.9225 68.0214 50.913 68.0585C50.9036 68.0957 50.9057 68.1349 50.9191 68.1708C50.9681 68.272 51.1087 68.2727 51.2193 68.2552C51.6762 68.1836 52.1311 68.0818 52.5411 67.8652C52.086 67.9079 51.6278 67.9058 51.1731 67.8591V67.8591Z" fill="#D6A7B3"/>
<path d="M50.8038 16.424C47.5611 17.0157 44.8089 17.9082 42.1907 19.1226C40.8169 14.8645 40.6575 10.3037 41.7304 5.95884C41.7606 5.83741 41.7921 5.7153 41.8249 5.59387C41.9299 5.51831 42.035 5.44185 42.1404 5.36449C43.4288 4.41594 44.7071 3.04033 46.1602 1.82124C47.4332 0.751251 48.8227 -0.048877 50.7991 -0.619629C50.1727 0.82884 49.2521 3.45253 49.0136 4.32553C48.7028 5.46231 48.9212 6.51679 49.0063 7.65492C49.2287 10.6301 49.5831 11.296 50.8038 16.424Z" fill="#FAEBDE"/>
<path d="M44.3986 80.2753C44.6396 79.9312 44.9525 79.6445 45.3154 79.4354C45.6783 79.2263 46.0823 79.0999 46.499 79.065C46.4682 79.1842 46.4369 79.3032 46.4052 79.4219L48.4687 78.2163C48.5021 78.3494 48.5002 78.4891 48.4632 78.6212C48.4262 78.7534 48.3553 78.8734 48.2577 78.9692L49.9051 78.2865L49.1681 79.3477L51.3696 78.0456C51.229 78.3857 51.0885 78.7259 50.9482 79.0664L52.6814 77.4216C52.627 77.9451 52.5725 78.4684 52.518 78.9915L54.2853 76.6215C54.6954 76.0716 55.2508 75.459 55.9241 75.571C55.6445 76.2173 55.3649 76.8632 55.0853 77.5086L56.5827 76.0804C56.4152 76.6808 56.2479 77.2813 56.0809 77.8817C56.5993 77.7273 57.0739 77.451 57.4655 77.0757C57.8571 76.7003 58.1545 76.2366 58.3333 75.7228C58.3758 76.3424 58.2377 76.9609 57.936 77.5026C58.5135 77.599 58.9161 76.9574 59.1486 76.4157C59.564 75.4482 59.9796 74.4812 60.3954 73.5147C60.3646 74.1718 60.334 74.8289 60.3036 75.486C60.4311 74.1403 60.7684 72.8232 61.3032 71.5832L61.5404 73.425L61.9585 69.4614L62.7175 70.6684C62.4916 70.0943 62.4061 69.474 62.4681 68.8597C62.5301 68.2454 62.7379 67.6551 63.074 67.1386C63.2435 66.8829 63.4679 66.634 63.7674 66.5753C64.2685 66.4761 64.7053 66.9497 64.8976 67.4267C65.3699 68.5972 65.045 69.9458 64.5023 71.0846C63.9597 72.2234 63.2066 73.261 62.7658 74.4444C63.6216 73.4442 64.2915 72.297 64.7435 71.0576C64.2553 73.3028 63.0027 75.3054 61.2027 76.7186C62.5885 75.8389 63.7571 74.6527 64.6196 73.2502C63.7908 75.2341 62.3149 76.8741 60.4356 77.8992C61.6517 77.3167 62.7887 76.5798 63.819 75.7066C62.4151 77.545 60.4722 78.8916 58.2656 79.5555C59.8974 79.1082 61.4677 78.4588 62.9406 77.622C61.2567 79.0677 59.2445 80.0725 57.0824 80.5472C58.6047 80.4877 60.1066 80.1743 61.527 79.6196C60.0712 80.4999 58.4478 81.0621 56.7622 81.2698C57.7722 81.2735 58.7771 81.4158 59.7489 81.6928L56.8781 81.7171L58.5651 82.4356L56.645 82.503L57.7685 82.9362L56.1117 83.2148L57.1079 83.851L53.6469 83.8861L54.5459 84.4332C53.9384 84.5876 53.3008 84.5739 52.7003 84.3937C52.0999 84.2134 51.5589 83.8732 51.1345 83.4091C51.3877 83.7147 50.9569 84.1944 50.5677 84.1303C50.1784 84.0662 49.9131 83.708 49.6907 83.3794L49.8997 84.1053C49.1727 83.9307 48.5172 83.5333 48.0238 82.9679C48.2208 83.1703 48.0835 83.5562 47.8228 83.656C47.5622 83.7559 47.2527 83.6256 47.0624 83.4165C46.8722 83.2074 46.773 82.9321 46.6785 82.6643L46.3268 83.2236C45.1403 82.8005 44.274 81.5896 44.3986 80.2753Z" fill="#E4DCD1"/>
<path d="M56.0146 79.9367C58.5088 78.6095 60.6002 76.6281 62.0678 74.2021C61.1338 76.979 58.7843 79.2269 56.0146 79.9367Z" fill="#F5F3F0"/>
</g>
</svg>
