<svg width="50" height="50" viewBox="0 0 50 50" fill="none" xmlns="http://www.w3.org/2000/svg">
<path d="M0 8C0 3.58172 3.58172 0 8 0H50V50H8C3.58172 50 0 46.4183 0 42V8Z" fill="#858585"/>
<g clip-path="url(#clip0_236_16)">
<path d="M17.5003 17.5H32.5003C32.7213 17.5 32.9333 17.5878 33.0896 17.7441C33.2459 17.9004 33.3337 18.1123 33.3337 18.3333V31.6667C33.3337 31.8877 33.2459 32.0996 33.0896 32.2559C32.9333 32.4122 32.7213 32.5 32.5003 32.5H17.5003C17.2793 32.5 17.0674 32.4122 16.9111 32.2559C16.7548 32.0996 16.667 31.8877 16.667 31.6667V18.3333C16.667 18.1123 16.7548 17.9004 16.9111 17.7441C17.0674 17.5878 17.2793 17.5 17.5003 17.5ZM31.667 21.0317L25.0603 26.9483L18.3337 21.0133V30.8333H31.667V21.0317ZM18.7595 19.1667L25.0512 24.7183L31.252 19.1667H18.7595Z" fill="white"/>
</g>
<defs>
<clipPath id="clip0_236_16">
<rect width="20" height="20" fill="white" transform="translate(15 15)"/>
</clipPath>
</defs>
</svg>
