<svg width="50" height="50" viewBox="0 0 50 50" fill="none" xmlns="http://www.w3.org/2000/svg">
<path d="M0 8C0 3.58172 3.58172 0 8 0H50V50H8C3.58172 50 0 46.4183 0 42V8Z" fill="#DC0000"/>
<g clip-path="url(#clip0_236_6)">
<path d="M22.805 23.9017C23.5869 25.2754 24.7246 26.4131 26.0983 27.195L26.835 26.1633C26.9535 25.9974 27.1286 25.8807 27.3273 25.8353C27.526 25.7898 27.7345 25.8188 27.9133 25.9167C29.0919 26.5608 30.3935 26.9481 31.7325 27.0533C31.9415 27.0699 32.1365 27.1646 32.2788 27.3186C32.421 27.4726 32.5 27.6745 32.5 27.8842V31.6025C32.5 31.8088 32.4235 32.0078 32.2853 32.161C32.1471 32.3142 31.9569 32.4106 31.7517 32.4317C31.31 32.4775 30.865 32.5 30.4167 32.5C23.2833 32.5 17.5 26.7167 17.5 19.5833C17.5 19.135 17.5225 18.69 17.5683 18.2483C17.5894 18.0431 17.6858 17.8529 17.839 17.7147C17.9922 17.5765 18.1912 17.5 18.3975 17.5H22.1158C22.3255 17.5 22.5274 17.579 22.6814 17.7212C22.8354 17.8635 22.9301 18.0585 22.9467 18.2675C23.0519 19.6065 23.4392 20.9081 24.0833 22.0867C24.1812 22.2655 24.2102 22.474 24.1647 22.6727C24.1193 22.8714 24.0026 23.0465 23.8367 23.165L22.805 23.9017ZM20.7033 23.3542L22.2867 22.2233C21.8373 21.2534 21.5295 20.224 21.3725 19.1667H19.175C19.17 19.305 19.1675 19.4442 19.1675 19.5833C19.1667 25.7967 24.2033 30.8333 30.4167 30.8333C30.5558 30.8333 30.695 30.8308 30.8333 30.825V28.6275C29.776 28.4705 28.7466 28.1627 27.7767 27.7133L26.6458 29.2967C26.1906 29.1198 25.7483 28.9109 25.3225 28.6717L25.2742 28.6442C23.6396 27.7139 22.2861 26.3604 21.3558 24.7258L21.3283 24.6775C21.0891 24.2517 20.8802 23.8094 20.7033 23.3542Z" fill="white"/>
</g>
<defs>
<clipPath id="clip0_236_6">
<rect width="20" height="20" fill="white" transform="translate(15 15)"/>
</clipPath>
</defs>
</svg>
