<svg width="20" height="20" viewBox="0 0 20 20" fill="none" xmlns="http://www.w3.org/2000/svg">
<g clip-path="url(#clip0_236_13)">
<path d="M6.0445 15.4117L6.64784 15.7642C7.66529 16.3576 8.82249 16.6692 10.0003 16.6667C11.3189 16.6667 12.6078 16.2758 13.7041 15.5432C14.8005 14.8107 15.6549 13.7695 16.1595 12.5513C16.6641 11.3331 16.7961 9.99269 16.5389 8.69948C16.2817 7.40627 15.6467 6.21839 14.7144 5.28604C13.782 4.35369 12.5941 3.71875 11.3009 3.46151C10.0077 3.20428 8.66729 3.3363 7.44911 3.84088C6.23094 4.34547 5.18975 5.19995 4.45721 6.29628C3.72466 7.39261 3.33367 8.68154 3.33367 10.0001C3.33367 11.1967 3.64784 12.3442 4.237 13.3534L4.58867 13.9567L4.0445 15.9576L6.0445 15.4117ZM1.67034 18.3334L2.797 14.1934C2.05462 12.9208 1.66458 11.4734 1.667 10.0001C1.667 5.39758 5.39784 1.66675 10.0003 1.66675C14.6028 1.66675 18.3337 5.39758 18.3337 10.0001C18.3337 14.6026 14.6028 18.3334 10.0003 18.3334C8.52765 18.3358 7.08088 17.9461 5.80867 17.2042L1.67034 18.3334ZM6.99284 6.09008C7.1045 6.08175 7.217 6.08175 7.32867 6.08675C7.37367 6.09008 7.41867 6.09508 7.46367 6.10008C7.59617 6.11508 7.742 6.19591 7.79117 6.30758C8.0395 6.87091 8.28117 7.43841 8.5145 8.00758C8.56617 8.13425 8.53534 8.29675 8.437 8.45508C8.36937 8.56215 8.29622 8.66562 8.21784 8.76508C8.12367 8.88591 7.92117 9.10758 7.92117 9.10758C7.92117 9.10758 7.83867 9.20591 7.87034 9.32841C7.882 9.37508 7.92034 9.44258 7.95534 9.49925L8.0045 9.57841C8.21784 9.93425 8.5045 10.2951 8.8545 10.6351C8.9545 10.7317 9.052 10.8309 9.157 10.9234C9.547 11.2676 9.98867 11.5484 10.4653 11.7567L10.4695 11.7584C10.5403 11.7892 10.5762 11.8059 10.6795 11.8501C10.7312 11.8717 10.7845 11.8909 10.8387 11.9051C10.8946 11.9193 10.9536 11.9167 11.008 11.8974C11.0625 11.8781 11.11 11.8431 11.1445 11.7967C11.7478 11.0659 11.8028 11.0184 11.8078 11.0184V11.0201C11.8498 10.981 11.8995 10.9513 11.9539 10.9331C12.0082 10.9148 12.0658 10.9084 12.1228 10.9142C12.1728 10.9176 12.2237 10.9267 12.2703 10.9476C12.7128 11.1501 13.437 11.4659 13.437 11.4659L13.922 11.6834C14.0037 11.7226 14.0778 11.8151 14.0803 11.9042C14.0837 11.9601 14.0887 12.0501 14.0695 12.2151C14.0428 12.4309 13.9778 12.6901 13.9128 12.8259C13.8683 12.9186 13.8092 13.0036 13.7378 13.0776C13.6537 13.1659 13.5617 13.2462 13.4628 13.3176C13.4286 13.3433 13.3939 13.3683 13.3587 13.3926C13.255 13.4583 13.1485 13.5195 13.0395 13.5759C12.8249 13.6899 12.588 13.7553 12.3453 13.7676C12.1912 13.7759 12.037 13.7876 11.882 13.7792C11.8753 13.7792 11.4087 13.7067 11.4087 13.7067C10.2239 13.3951 9.12816 12.8113 8.20867 12.0017C8.02034 11.8359 7.84617 11.6576 7.66784 11.4801C6.92617 10.7426 6.36617 9.94675 6.02617 9.19508C5.85214 8.82616 5.75814 8.42458 5.75034 8.01675C5.7469 7.51079 5.91229 7.01814 6.22034 6.61675C6.28117 6.53841 6.33867 6.45675 6.43784 6.36258C6.54367 6.26258 6.61034 6.20925 6.68284 6.17258C6.77923 6.12427 6.88439 6.09593 6.992 6.08925L6.99284 6.09008Z" fill="white"/>
</g>
<defs>
<clipPath id="clip0_236_13">
<rect width="20" height="20" fill="white"/>
</clipPath>
</defs>
</svg>
